<svg xmlns="http://www.w3.org/2000/svg" viewBox="0 0 512 512">
  <defs>
    <linearGradient id="bg" x1="0%" y1="0%" x2="100%" y2="100%">
      <stop offset="0%" style="stop-color:#3b82f6"/>
      <stop offset="100%" style="stop-color:#1d4ed8"/>
    </linearGradient>
  </defs>
  <rect width="512" height="512" rx="96" fill="url(#bg)"/>
  <g fill="white">
    <!-- WiFi waves -->
    <path d="M256 320a40 40 0 1 1 0 80 40 40 0 0 1 0-80z"/>
    <path d="M256 240c44.2 0 84.2 18 113.1 47a16 16 0 0 1-22.6 22.6A120 120 0 0 0 256 272a120 120 0 0 0-90.5 37.6 16 16 0 0 1-22.6-22.6c28.9-29 68.9-47 113.1-47z" opacity="0.8"/>
    <path d="M256 160c66.3 0 126.3 27 169.7 70.3a16 16 0 0 1-22.6 22.6A200 200 0 0 0 256 192a200 200 0 0 0-147.1 61a16 16 0 0 1-22.6-22.7A232 232 0 0 1 256 160z" opacity="0.6"/>
  </g>
</svg>
